Coordinates
version=1
nRows=16
nColumns=40
inDegrees=yes

Units are S.I. units (second, meters, Newtons, ...)
If the header above contains a line with 'inDegrees', this indicates whether rotational values are in degrees (yes) or radians (no).

endheader
time	pelvis_tilt	pelvis_list	pelvis_rotation	pelvis_tx	pelvis_ty	pelvis_tz	hip_flexion_r	hip_adduction_r	hip_rotation_r	knee_angle_r	knee_angle_r_beta	ankle_angle_r	subtalar_angle_r	mtp_angle_r	hip_flexion_l	hip_adduction_l	hip_rotation_l	knee_angle_l	knee_angle_l_beta	ankle_angle_l	subtalar_angle_l	mtp_angle_l	lumbar_extension	lumbar_bending	lumbar_rotation	arm_flex_r	arm_add_r	arm_rot_r	elbow_flex_r	pro_sup_r	wrist_flex_r	wrist_dev_r	arm_flex_l	arm_add_l	arm_rot_l	elbow_flex_l	pro_sup_l	wrist_flex_l	wrist_dev_l
      2.47500000	    -17.94507547	     -7.41247286	     14.76773221	     -1.55736434	      0.96373761	      0.32927228	     69.98760450	     -9.24526738	     -8.21019700	     71.81573935	      1.25342111	      1.64150826	      0.00000000	      0.00000000	    -13.39870446	    -11.21350388	      8.80112970	     17.10908172	      0.29860981	    -28.97370765	      0.00000000	      0.00000000	    -10.26100071	     15.49207859	    -20.48439289	    -62.22522459	    -14.41840575	    -35.11610117	     89.79023692	     89.41719471	      0.00000000	      0.00000000	     39.66237866	    -26.00536328	     -8.24036939	    138.45145226	     34.43646130	      0.00000000	      0.00000000
      2.48000000	    -17.83441217	     -7.01071950	     14.76882418	     -1.52647668	      0.96573890	      0.32791732	     69.35255749	     -9.52884760	     -7.88077501	     67.44633895	      1.17716068	      1.61025706	      0.00000000	      0.00000000	    -14.39861014	    -10.70040062	      9.89400408	     17.83336486	      0.31125093	    -29.58316161	      0.00000000	      0.00000000	    -10.26921579	     15.41254903	    -20.92217918	    -62.54289636	    -14.08092234	    -36.19116381	     89.98699300	     89.41273793	      0.00000000	      0.00000000	     38.90669678	    -26.77598021	     -8.47000643	    140.06851929	     34.27156219	      0.00000000	      0.00000000
      2.48500000	    -17.71920245	     -6.52222735	     14.83763351	     -1.49574632	      0.96759520	      0.32664176	     68.54882893	     -9.90047655	     -7.58552715	     62.96033839	      1.09886520	      1.56477840	      0.00000000	      0.00000000	    -15.21524684	    -10.08954279	     11.19403200	     19.04109678	      0.33232983	    -29.55186098	      0.00000000	      0.00000000	    -10.31926747	     15.22597997	    -21.39733134	    -62.71496085	    -13.71101709	    -37.21329145	     90.15911915	     89.40492458	      0.00000000	      0.00000000	     37.94724097	    -27.63144354	     -8.56953442	    141.60283812	     34.38669815	      0.00000000	      0.00000000
      2.49000000	    -17.58605006	     -5.96467251	     14.93282767	     -1.46512495	      0.96927997	      0.32551016	     67.57399858	    -10.30994389	     -7.34376584	     58.37848100	      1.01889671	      1.49999728	      0.00000000	      0.00000000	    -15.89211022	     -9.40092740	     12.62768660	     20.69174129	      0.36113901	    -28.96463145	      0.00000000	      0.00000000	    -10.42511423	     14.94871941	    -21.85636370	    -62.76530551	    -13.31781562	    -38.17827157	     90.31745109	     89.39404692	      0.00000000	      0.00000000	     36.77128747	    -28.55796261	     -8.53055691	    143.04225368	     34.50116831	      0.00000000	      0.00000000
      2.49500000	    -17.42079873	     -5.36036352	     15.00809566	     -1.43455910	      0.97076712	      0.32459415	     66.42842554	    -10.69798183	     -7.16903672	     53.72590092	      0.93769386	      1.39725625	      0.00000000	      0.00000000	    -16.46986201	     -8.65659624	     14.08596874	     22.73328230	      0.39677063	    -27.94342689	      0.00000000	      0.00000000	    -10.60137955	     14.60145570	    -22.24391160	    -62.71702105	    -12.91525178	    -39.07906687	     90.47228913	     89.38300943	      0.00000000	      0.00000000	     35.37187635	    -29.54001663	     -8.35605355	    144.35203476	     34.61954673	      0.00000000	      0.00000000
      2.50000000	    -17.21127207	     -4.73376403	     15.01902718	     -1.40399894	      0.97203271	      0.32396112	     65.11805741	    -11.00547754	     -7.06413354	     49.03429266	      0.85580985	      1.22489605	      0.00000000	      0.00000000	    -16.97870179	     -7.88042861	     15.43927801	     25.10915889	      0.43823750	    -26.63218369	      0.00000000	      0.00000000	    -10.85936717	     14.20621901	    -22.51094860	    -62.58970885	    -12.52151828	    -39.90509326	     90.63205304	     89.37278592	      0.00000000	      0.00000000	     33.74813692	    -30.56127523	     -8.05542512	    145.49838808	     34.74892583	      0.00000000	      0.00000000
      2.50500000	    -16.94954022	     -4.10862066	     14.93047697	     -1.37340770	      0.97305798	      0.32365714	     63.65627972	    -11.18454978	     -7.02012476	     44.34430231	      0.77395408	      0.94174281	      0.00000000	      0.00000000	    -17.43332940	     -7.09689822	     16.55945215	     27.76522458	      0.48459459	    -25.17867228	      0.00000000	      0.00000000	    -11.20423621	     13.78421309	    -22.62259867	    -62.39670084	    -12.15761947	    -40.64342738	     90.80221870	     89.36184262	      0.00000000	      0.00000000	     31.90842935	    -31.60273651	     -7.65447349	    146.41057445	     35.43613183	      0.00000000	      0.00000000
      2.51000000	    -16.63338952	     -3.50439656	     14.72223007	     -1.34276740	      0.97383206	      0.32369231	     62.06514780	    -11.20854208	     -7.01809965	     39.70938119	      0.69305945	      0.50492224	      0.00000000	      0.00000000	    -17.83253269	     -6.32810177	     17.34336960	     30.65400345	      0.53501329	    -23.71770822	      0.00000000	      0.00000000	    -11.63330585	     13.35297304	    -22.56155847	    -62.14493095	    -11.84211376	    -41.28334141	     90.98544053	     89.35349904	      0.00000000	      0.00000000	     29.86112017	    -32.64335067	     -7.16100707	    147.11167521	     35.99804846	      0.00000000	      0.00000000
      2.51500000	    -16.26684088	     -2.93359879	     14.39039161	     -1.31207880	      0.97435200	      0.32403669	     60.37642584	    -11.07601093	     -7.03348297	     35.19988829	      0.61435395	     -0.11798116	      0.00000000	      0.00000000	    -18.16292861	     -5.59085333	     17.72893682	     33.73533174	      0.58879261	    -22.36126828	      0.00000000	      0.00000000	    -12.13666928	     12.92451554	    -22.32940106	    -61.83460607	    -11.58918768	    -41.81863708	     91.18228731	     89.34761351	      0.00000000	      0.00000000	     27.62605132	    -33.65609408	     -6.60342280	    147.55854856	     36.72033583	      0.00000000	      0.00000000
      2.52000000	    -15.85935104	     -2.40041710	     13.94474262	     -1.28135639	      0.97462187	      0.32462621	     58.63170280	    -10.80888431	     -7.04171604	     30.90649595	      0.53942011	     -0.93441548	      0.00000000	      0.00000000	    -18.40572284	     -4.89456335	     17.70056267	     36.97331588	      0.64530610	    -21.19184851	      0.00000000	      0.00000000	    -12.69869613	     12.50388510	    -21.94249905	    -61.46187484	    -11.40806936	    -42.24731987	     91.39234254	     89.34443119	      0.00000000	      0.00000000	     25.22738075	    -34.61016810	     -6.00389406	    147.73332959	     37.60312116	      0.00000000	      0.00000000
      2.52500000	    -15.42411939	     -1.90231243	     13.40443006	     -1.25062257	      0.97465091	      0.32537618	     56.88128881	    -10.44554905	     -7.02770567	     26.94011891	      0.47019378	     -1.91625348	      0.00000000	      0.00000000	    -18.54212946	     -4.24196845	     17.28433579	     40.33492607	      0.70397726	    -20.25926435	      0.00000000	      0.00000000	    -13.30049304	     12.09088267	    -21.42795373	    -61.02153016	    -11.30677855	    -42.56885419	     91.61539759	     89.34349172	      0.00000000	      0.00000000	     22.69259652	    -35.47331033	     -5.38625282	    147.61939436	     38.69845126	      0.00000000	      0.00000000
      2.53000000	    -14.97645762	     -1.43559891	     12.79407837	     -1.21990365	      0.97445046	      0.32619876	     55.18046533	    -10.03003913	     -6.99430080	     23.42294725	      0.40880755	     -2.99666650	      0.00000000	      0.00000000	    -18.55473666	     -3.63432704	     16.53640812	     43.79280773	      0.76432868	    -19.57645898	      0.00000000	      0.00000000	    -13.92088961	     11.68522799	    -20.81839284	    -60.50820998	    -11.29363399	    -42.78217513	     91.85049768	     89.34475005	      0.00000000	      0.00000000	     20.05266547	    -36.21290271	     -4.77346023	    147.19868535	     40.12678126	      0.00000000	      0.00000000
      2.53500000	    -14.53176260	     -1.00174785	     12.14033867	     -1.18922529	      0.97403053	      0.32701880	     53.58142728	     -9.59975834	     -6.96389686	     20.46863976	      0.35724516	     -4.08036841	      0.00000000	      0.00000000	    -18.42807827	     -3.07786736	     15.52907842	     47.32776728	      0.82602537	    -19.12093338	      0.00000000	      0.00000000	    -14.53832762	     11.29246216	    -20.14638594	    -59.91713001	    -11.37756536	    -42.88446983	     92.09607642	     89.34677647	      0.00000000	      0.00000000	     17.34341408	    -36.79655896	     -4.19044881	    146.44389072	     42.19441072	      0.00000000	      0.00000000
      2.54000000	    -14.10368138	     -0.61130175	     11.46954626	     -1.15860805	      0.97339568	      0.32778361	     52.12260154	     -9.17636601	     -6.96925422	     18.15656471	      0.31689184	     -5.06824054	      0.00000000	      0.00000000	    -18.14912172	     -2.58828558	     14.33830688	     50.93002453	      0.88889662	    -18.84066146	      0.00000000	      0.00000000	    -15.13213894	     10.92748262	    -19.44123146	    -59.24407103	    -11.56649516	    -42.87375785	     92.34977039	     89.34845621	      0.00000000	      0.00000000	     14.60787531	    -37.19210629	     -3.67435192	    145.30680730	     45.56249948	      0.00000000	      0.00000000
      2.54500000	    -13.70328161	     -0.28259686	     10.80646261	     -1.12806458	      0.97254056	      0.32846248	     50.82143797	     -8.76479830	     -7.04025301	     16.51406126	      0.28822474	     -5.88353859	      0.00000000	      0.00000000	    -17.70806736	     -2.18957029	     13.03705171	     54.59858358	      0.95292505	    -18.66279319	      0.00000000	      0.00000000	    -15.68488161	     10.61280185	    -18.73001094	    -58.48470615	    -11.87080838	    -42.74488644	     92.60853736	     89.34909622	      0.00000000	      0.00000000	     11.89851810	    -37.36635223	     -3.31328597	    143.69417355	     51.72519027	      0.00000000	      0.00000000
      2.55000000	    -13.33915544	     -0.03559530	     10.17222572	     -1.09759904	      0.97144835	      0.32904206	     49.67482204	     -8.35855316	     -7.19423502	     15.51596269	      0.27080464	     -6.49136514	      0.00000000	      0.00000000	    -17.09983461	     -1.90652108	     11.69347957	     58.33666030	      1.01816680	    -18.50703101	      0.00000000	      0.00000000	    -16.18528009	     10.37205664	    -18.04553907	    -57.63076301	    -12.31171353	    -42.48407279	     92.86796233	     89.34714578	      0.00000000	      0.00000000	      9.28233984	    -37.27796820	     -3.36214027	    141.46341995	     63.70274385	      0.00000000	      0.00000000
